<?xml version="1.0" standalone="no"?>
<!DOCTYPE svg PUBLIC "-//W3C//DTD SVG 20010904//EN"
 "http://www.w3.org/TR/2001/REC-SVG-20010904/DTD/svg10.dtd">
<svg version="1.0" xmlns="http://www.w3.org/2000/svg"
 width="700.000000pt" height="700.000000pt" viewBox="0 0 700.000000 700.000000"
 preserveAspectRatio="xMidYMid meet">
<metadata>
Created by potrace 1.14, written by Peter Selinger 2001-2017
</metadata>
<g transform="translate(0.000000,700.000000) scale(0.100000,-0.100000)"
fill="#000000" stroke="none">
<path d="M3215 6990 c-848 -76 -1598 -424 -2190 -1015 -538 -537 -880 -1219
-989 -1975 -215 -1488 543 -2947 1883 -3624 698 -353 1507 -461 2282 -305 720
145 1389 522 1881 1063 896 984 1159 2373 686 3624 -61 161 -206 454 -298 600
-152 243 -395 535 -597 718 -546 497 -1191 797 -1923 895 -167 23 -575 33
-735 19z m1677 -2454 c351 -81 624 -314 759 -648 17 -43 30 -81 27 -83 -5 -5
-433 -125 -446 -125 -5 0 -19 26 -32 59 -42 113 -138 234 -241 303 -100 67
-265 104 -424 94 -186 -11 -312 -63 -426 -178 -159 -159 -241 -457 -211 -766
15 -156 42 -257 98 -371 116 -236 338 -354 634 -337 58 3 132 13 165 22 176
47 329 187 402 367 14 34 26 63 28 65 3 4 448 -117 454 -123 6 -6 -48 -135
-86 -205 -74 -137 -205 -283 -330 -368 -174 -118 -364 -177 -608 -189 -647
-31 -1107 335 -1221 972 -25 139 -25 431 0 570 73 408 290 711 620 866 170 79
343 111 576 104 117 -3 181 -11 262 -29z m-1614 -228 l-3 -213 -382 -3 -383
-2 0 -995 0 -995 -225 0 -225 0 0 995 0 995 -382 2 -383 3 -3 213 -2 212 995
0 995 0 -2 -212z"/>
</g>
</svg>
