<?xml version="1.0" standalone="no"?>
<!DOCTYPE svg PUBLIC "-//W3C//DTD SVG 20010904//EN"
 "http://www.w3.org/TR/2001/REC-SVG-20010904/DTD/svg10.dtd">
<svg version="1.0" xmlns="http://www.w3.org/2000/svg"
 width="700.000000pt" height="700.000000pt" viewBox="0 0 700.000000 700.000000"
 preserveAspectRatio="xMidYMid meet">
<metadata>
Created by potrace 1.14, written by Peter Selinger 2001-2017
</metadata>
<g transform="translate(0.000000,700.000000) scale(0.100000,-0.100000)"
fill="#000000" stroke="none">
<path d="M3215 6990 c-848 -76 -1598 -424 -2190 -1015 -538 -537 -880 -1219
-989 -1975 -215 -1488 543 -2947 1883 -3624 698 -353 1507 -461 2282 -305 720
145 1389 522 1881 1063 896 984 1159 2373 686 3624 -61 161 -206 454 -298 600
-152 243 -395 535 -597 718 -546 497 -1191 797 -1923 895 -167 23 -575 33
-735 19z m1601 -2445 c367 -70 654 -308 794 -659 17 -43 28 -82 23 -86 -8 -8
-371 -110 -390 -110 -6 0 -16 20 -23 44 -39 141 -185 314 -320 379 -118 58
-184 71 -345 71 -212 0 -353 -47 -476 -162 -146 -135 -224 -317 -250 -588 -22
-226 14 -461 97 -632 80 -165 213 -281 389 -339 72 -24 96 -27 230 -27 172 -1
221 8 344 65 67 31 98 54 161 116 80 81 147 187 170 269 7 24 16 44 21 44 18
0 385 -103 392 -110 5 -4 -6 -43 -22 -87 -99 -255 -319 -486 -559 -588 -207
-87 -502 -117 -737 -75 -475 86 -803 434 -892 948 -24 137 -23 451 1 587 96
542 448 889 968 955 99 12 325 4 424 -15z m-1556 -215 l0 -190 -390 0 -390 0
0 -1020 0 -1020 -200 0 -200 0 0 1020 0 1020 -390 0 -390 0 0 190 0 190 980 0
980 0 0 -190z"/>
</g>
</svg>
