<svg width="43" height="25" viewBox="0 0 43 25" fill="none" xmlns="http://www.w3.org/2000/svg">
<path d="M0 5.29545V0.727272H19.6705V5.29545H12.6136V24H7.06818V5.29545H0ZM42.4801 9.15909H36.7983C36.7225 8.57576 36.5672 8.04924 36.3324 7.57954C36.0975 7.10985 35.7869 6.70833 35.4006 6.375C35.0142 6.04167 34.5559 5.78788 34.0256 5.61364C33.5028 5.43182 32.9233 5.34091 32.2869 5.34091C31.1581 5.34091 30.1847 5.61742 29.3665 6.17045C28.5559 6.72348 27.9309 7.52273 27.4915 8.56818C27.0597 9.61364 26.8438 10.8788 26.8438 12.3636C26.8438 13.9091 27.0634 15.2045 27.5028 16.25C27.9498 17.2879 28.5748 18.072 29.3778 18.6023C30.1884 19.125 31.1468 19.3864 32.2528 19.3864C32.8741 19.3864 33.4384 19.3068 33.946 19.1477C34.4612 18.9886 34.9119 18.7576 35.2983 18.4545C35.6922 18.1439 36.0142 17.7689 36.2642 17.3295C36.5218 16.8826 36.6998 16.3788 36.7983 15.8182L42.4801 15.8523C42.3816 16.8826 42.0824 17.8977 41.5824 18.8977C41.09 19.8977 40.4119 20.8106 39.5483 21.6364C38.6847 22.4545 37.6316 23.1061 36.3892 23.5909C35.1544 24.0758 33.7377 24.3182 32.1392 24.3182C30.0331 24.3182 28.1468 23.8561 26.4801 22.9318C24.821 22 23.5104 20.6439 22.5483 18.8636C21.5862 17.0833 21.1051 14.9167 21.1051 12.3636C21.1051 9.80303 21.5938 7.63258 22.571 5.85227C23.5483 4.07197 24.8703 2.7197 26.5369 1.79545C28.2036 0.871211 30.071 0.40909 32.1392 0.40909C33.5483 0.40909 34.8513 0.60606 36.0483 1C37.2453 1.38636 38.2983 1.95454 39.2074 2.70454C40.1165 3.44697 40.8551 4.35985 41.4233 5.44318C41.9915 6.52652 42.3438 7.76515 42.4801 9.15909Z" fill="white"/>
<path d="M0 5.29545H-1V6.29545H0V5.29545ZM0 0.727272V-0.272728H-1V0.727272H0ZM19.6705 0.727272H20.6705V-0.272728H19.6705V0.727272ZM19.6705 5.29545V6.29545H20.6705V5.29545H19.6705ZM12.6136 5.29545V4.29545H11.6136V5.29545H12.6136ZM12.6136 24V25H13.6136V24H12.6136ZM7.06818 24H6.06818V25H7.06818V24ZM7.06818 5.29545H8.06818V4.29545H7.06818V5.29545ZM1 5.29545V0.727272H-1V5.29545H1ZM0 1.72727H19.6705V-0.272728H0V1.72727ZM18.6705 0.727272V5.29545H20.6705V0.727272H18.6705ZM19.6705 4.29545H12.6136V6.29545H19.6705V4.29545ZM11.6136 5.29545V24H13.6136V5.29545H11.6136ZM12.6136 23H7.06818V25H12.6136V23ZM8.06818 24V5.29545H6.06818V24H8.06818ZM7.06818 4.29545H0V6.29545H7.06818V4.29545ZM42.4801 9.15909V10.1591H43.5827L43.4754 9.06173L42.4801 9.15909ZM36.7983 9.15909L35.8066 9.28788L35.9198 10.1591H36.7983V9.15909ZM36.3324 7.57954L35.438 8.02676L35.438 8.02676L36.3324 7.57954ZM35.4006 6.375L36.0538 5.61784L36.0538 5.61784L35.4006 6.375ZM34.0256 5.61364L33.697 6.55813L33.7052 6.56097L33.7134 6.56367L34.0256 5.61364ZM29.3665 6.17045L28.8065 5.34195L28.8029 5.34439L29.3665 6.17045ZM27.4915 8.56818L26.5696 8.18071L26.5672 8.18642L27.4915 8.56818ZM27.5028 16.25L26.5809 16.6375L26.5844 16.6455L27.5028 16.25ZM29.3778 18.6023L28.8267 19.4368L28.8359 19.4427L29.3778 18.6023ZM33.946 19.1477L33.6509 18.1922L33.6469 18.1935L33.946 19.1477ZM35.2983 18.4545L35.9154 19.2414L35.9175 19.2398L35.2983 18.4545ZM36.2642 17.3295L35.3978 16.8302L35.395 16.835L36.2642 17.3295ZM36.7983 15.8182L36.8043 14.8182L35.9595 14.8131L35.8134 15.6452L36.7983 15.8182ZM42.4801 15.8523L43.4756 15.9474L43.5796 14.8589L42.4861 14.8523L42.4801 15.8523ZM41.5824 18.8977L40.6879 18.4505L40.6853 18.456L41.5824 18.8977ZM39.5483 21.6364L40.236 22.3623L40.2394 22.3591L39.5483 21.6364ZM36.3892 23.5909L36.0257 22.6593L36.0237 22.6601L36.3892 23.5909ZM26.4801 22.9318L25.9904 23.8037L25.9951 23.8064L26.4801 22.9318ZM22.5483 18.8636L23.428 18.3882L22.5483 18.8636ZM22.571 5.85227L21.6944 5.37107L21.6944 5.37107L22.571 5.85227ZM36.0483 1L35.7357 1.94989L35.7411 1.95165L36.0483 1ZM39.2074 2.70454L38.571 3.47593L38.5749 3.47908L39.2074 2.70454ZM42.4801 8.15909H36.7983V10.1591H42.4801V8.15909ZM37.79 9.0303C37.7015 8.34933 37.5173 7.71323 37.2268 7.13233L35.438 8.02676C35.6172 8.38525 35.7435 8.80218 35.8066 9.28788L37.79 9.0303ZM37.2268 7.13233C36.9346 6.54791 36.5432 6.04007 36.0538 5.61784L34.7473 7.13216C35.0307 7.3766 35.2605 7.67178 35.438 8.02676L37.2268 7.13233ZM36.0538 5.61784C35.5586 5.19058 34.9815 4.87513 34.3377 4.6636L33.7134 6.56367C34.1302 6.70063 34.4698 6.89276 34.7473 7.13216L36.0538 5.61784ZM34.3541 4.66914C33.7112 4.44553 33.0187 4.34091 32.2869 4.34091V6.34091C32.8279 6.34091 33.2945 6.4181 33.697 6.55813L34.3541 4.66914ZM32.2869 4.34091C30.988 4.34091 29.8128 4.66173 28.8065 5.34196L29.9265 6.99895C30.5565 6.57312 31.3283 6.34091 32.2869 6.34091V4.34091ZM28.8029 5.34439C27.8095 6.02214 27.0718 6.9859 26.5696 8.18072L28.4134 8.95564C28.79 8.05956 29.3023 7.42483 29.9301 6.99652L28.8029 5.34439ZM26.5672 8.18642C26.0724 9.38435 25.8438 10.7867 25.8438 12.3636H27.8438C27.8438 10.9709 28.0469 9.84292 28.4157 8.94994L26.5672 8.18642ZM25.8438 12.3636C25.8438 13.9968 26.0749 15.4335 26.581 16.6375L28.4247 15.8625C28.0519 14.9756 27.8438 13.8213 27.8438 12.3636H25.8438ZM26.5844 16.6455C27.0947 17.8306 27.8345 18.7814 28.8268 19.4367L29.9289 17.7678C29.3152 17.3625 28.8049 16.7452 28.4213 15.8545L26.5844 16.6455ZM28.8359 19.4427C29.8308 20.0842 30.9835 20.3864 32.2528 20.3864V18.3864C31.3101 18.3864 30.5461 18.1658 29.9198 17.7619L28.8359 19.4427ZM32.2528 20.3864C32.9589 20.3864 33.6261 20.296 34.2451 20.102L33.6469 18.1935C33.2508 18.3177 32.7892 18.3864 32.2528 18.3864V20.3864ZM34.2411 20.1032C34.8616 19.9116 35.4239 19.6269 35.9154 19.2414L34.6812 17.6677C34.3999 17.8883 34.0608 18.0657 33.651 18.1923L34.2411 20.1032ZM35.9175 19.2398C36.4135 18.8487 36.8201 18.3747 37.1334 17.8241L35.395 16.835C35.2083 17.1632 34.971 17.4392 34.6791 17.6693L35.9175 19.2398ZM37.1306 17.8288C37.4521 17.2709 37.6666 16.6548 37.7832 15.9912L35.8134 15.6452C35.733 16.1028 35.5914 16.4942 35.3978 16.8302L37.1306 17.8288ZM36.7923 16.8182L42.4741 16.8523L42.4861 14.8523L36.8043 14.8182L36.7923 16.8182ZM41.4847 15.7571C41.3988 16.6553 41.1373 17.5518 40.688 18.4505L42.4768 19.3449C43.0274 18.2437 43.3645 17.1098 43.4756 15.9474L41.4847 15.7571ZM40.6853 18.456C40.2482 19.3436 39.6424 20.1629 38.8572 20.9136L40.2394 22.3591C41.1815 21.4583 41.9318 20.4518 42.4795 19.3395L40.6853 18.456ZM38.8606 20.9104C38.1014 21.6296 37.1623 22.2158 36.0257 22.6593L36.7527 24.5225C38.101 23.9963 39.2679 23.2795 40.236 22.3623L38.8606 20.9104ZM36.0237 22.6601C34.9265 23.0909 33.6376 23.3182 32.1392 23.3182V25.3182C33.8378 25.3182 35.3822 25.0606 36.7547 24.5217L36.0237 22.6601ZM32.1392 23.3182C30.1846 23.3182 28.4682 22.8908 26.9651 22.0573L25.9951 23.8064C27.8254 24.8213 29.8817 25.3182 32.1392 25.3182V23.3182ZM26.9698 22.0599C25.4862 21.2267 24.3062 20.0132 23.428 18.3882L21.6685 19.3391C22.7146 21.2747 24.1558 22.7733 25.9904 23.8037L26.9698 22.0599ZM23.428 18.3882C22.5629 16.7873 22.1051 14.7932 22.1051 12.3636H20.1051C20.1051 15.0401 20.6095 17.3794 21.6685 19.3391L23.428 18.3882ZM22.1051 12.3636C22.1051 9.92821 22.5698 7.93269 23.4476 6.33347L21.6944 5.37107C20.6177 7.33246 20.1051 9.67785 20.1051 12.3636H22.1051ZM23.4476 6.33347C24.3403 4.70726 25.5312 3.49662 27.0219 2.66999L26.052 0.920922C24.2093 1.94277 22.7563 3.43667 21.6944 5.37107L23.4476 6.33347ZM27.0219 2.66999C28.5277 1.83495 30.2258 1.40909 32.1392 1.40909V-0.59091C29.9162 -0.59091 27.8795 -0.0925282 26.052 0.920922L27.0219 2.66999ZM32.1392 1.40909C33.4545 1.40909 34.6507 1.59281 35.7357 1.94988L36.3609 0.0501213C35.0519 -0.380692 33.6421 -0.59091 32.1392 -0.59091V1.40909ZM35.7411 1.95165C36.8261 2.30187 37.7657 2.81153 38.571 3.47592L39.8438 1.93317C38.8309 1.09756 37.6644 0.470853 36.3555 0.048348L35.7411 1.95165ZM38.5749 3.47908C39.3752 4.13266 40.0294 4.93853 40.5377 5.90765L42.3089 4.97871C41.6808 3.78117 40.8578 2.76128 39.8399 1.93001L38.5749 3.47908ZM40.5377 5.90765C41.038 6.8615 41.3592 7.97237 41.4849 9.25645L43.4754 9.06173C43.3283 7.55793 42.945 6.19153 42.3089 4.97871L40.5377 5.90765Z" fill="black"/>
</svg>
