<svg xmlns="http://www.w3.org/2000/svg" version="1.1" xmlns:xlink="http://www.w3.org/1999/xlink" xmlns:svgjs="http://svgjs.com/svgjs" width="50" height="50"><svg width="50" height="50" viewBox="0 0 50 50" fill="none" xmlns="http://www.w3.org/2000/svg">
<rect width="50" height="50" rx="25" fill="#171717"></rect>
<path d="M8.85227 19.5881V16.5455H23.1875V19.5881H17.8438V34H14.196V19.5881H8.85227ZM40.152 22.6562H36.419C36.3509 22.1733 36.2116 21.7443 36.0014 21.3693C35.7912 20.9886 35.5213 20.6648 35.1918 20.3977C34.8622 20.1307 34.4815 19.9261 34.0497 19.7841C33.6236 19.642 33.1605 19.571 32.6605 19.571C31.7571 19.571 30.9702 19.7955 30.2997 20.2443C29.6293 20.6875 29.1094 21.3352 28.7401 22.1875C28.3707 23.0341 28.1861 24.0625 28.1861 25.2727C28.1861 26.517 28.3707 27.5625 28.7401 28.4091C29.1151 29.2557 29.6378 29.8949 30.3082 30.3267C30.9787 30.7585 31.7543 30.9744 32.6349 30.9744C33.1293 30.9744 33.5866 30.9091 34.0071 30.7784C34.4332 30.6477 34.8111 30.4574 35.1406 30.2074C35.4702 29.9517 35.7429 29.642 35.9588 29.2784C36.1804 28.9148 36.3338 28.5 36.419 28.0341L40.152 28.0511C40.0554 28.8523 39.8139 29.625 39.4276 30.3693C39.0469 31.108 38.5327 31.7699 37.8849 32.3551C37.2429 32.9347 36.4759 33.3949 35.5838 33.7358C34.6974 34.071 33.6946 34.2386 32.5753 34.2386C31.0185 34.2386 29.6264 33.8864 28.3991 33.1818C27.1776 32.4773 26.2116 31.4574 25.5014 30.1222C24.7969 28.7869 24.4446 27.1705 24.4446 25.2727C24.4446 23.3693 24.8026 21.75 25.5185 20.4148C26.2344 19.0795 27.206 18.0625 28.4332 17.3636C29.6605 16.6591 31.0412 16.3068 32.5753 16.3068C33.5866 16.3068 34.5241 16.4489 35.3878 16.733C36.2571 17.017 37.027 17.4318 37.6974 17.9773C38.3679 18.517 38.9134 19.179 39.3338 19.9631C39.7599 20.7472 40.0327 21.6449 40.152 22.6562Z" fill="#38BDF8"></path>
</svg><style>@media (prefers-color-scheme: light) { :root { filter: none; } }
</style></svg>